<?xml version="1.0" encoding="utf-8"?><svg xmlns="http://www.w3.org/2000/svg" xmlns:xlink="http://www.w3.org/1999/xlink"><symbol fill="none" viewBox="0 0 24 23" id="menu" xmlns="http://www.w3.org/2000/svg"><g stroke="#EBB86B"><path stroke-width=".458" d="M2.604 20.022h18.792v.458H2.604zm-1.375 2.289h21.542v.458H1.229zM3.521 9.479h.458v8.25h-.458zm5.5 0h.458v8.25h-.458zm5.5 0h.458v8.25h-.458zm5.501 0h.458v8.25h-.458z"/><path d="M12 1 1 6.958h22L12 1Z" stroke-width=".917" stroke-linejoin="bevel"/></g></symbol><symbol fill="none" viewBox="0 0 16 16" id="telegram" xmlns="http://www.w3.org/2000/svg"><path d="m14.629 3.698-2.012 9.618c-.152.679-.548.848-1.11.528l-3.066-2.29-1.48 1.442c-.163.166-.3.305-.616.305l.22-3.165 5.683-5.204c.247-.223-.054-.347-.384-.123L4.839 9.29l-3.024-.959c-.658-.208-.67-.667.137-.986L13.78 2.727c.548-.208 1.027.124.849.971Z" fill="#000"/></symbol></svg>