<svg width="40" height="40" viewBox="0 0 40 40" fill="none" xmlns="http://www.w3.org/2000/svg">
<g id="simple-icons:visa">
<path id="Vector" d="M15.1867 13.7691L9.95 26.2624H6.53333L3.95667 16.2907C3.8 15.6774 3.665 15.4524 3.18833 15.1941C2.41167 14.7724 1.12833 14.3774 0 14.1307L0.0766667 13.7691H5.57667C5.93608 13.7687 6.28378 13.8968 6.55701 14.1303C6.83025 14.3638 7.011 14.6873 7.06667 15.0424L8.42833 22.2724L11.7917 13.7691H15.1867ZM28.575 22.1841C28.5883 18.8857 24.015 18.7041 24.0467 17.2307C24.0567 16.7824 24.4833 16.3057 25.4167 16.1841C26.5105 16.0802 27.6121 16.2737 28.605 16.7441L29.1717 14.0941C28.2049 13.7306 27.1811 13.5427 26.1483 13.5391C22.9533 13.5391 20.705 15.2391 20.685 17.6707C20.665 19.4691 22.29 20.4707 23.515 21.0707C24.775 21.6824 25.1983 22.0757 25.1917 22.6224C25.1833 23.4624 24.1883 23.8307 23.2583 23.8457C21.6333 23.8707 20.6917 23.4074 19.9383 23.0574L19.3533 25.7941C20.1083 26.1407 21.5017 26.4441 22.9467 26.4574C26.3417 26.4574 28.5633 24.7807 28.575 22.1841ZM37.01 26.2624H40L37.3917 13.7691H34.6317C34.3368 13.7663 34.0479 13.8523 33.8024 14.0157C33.5569 14.1792 33.3662 14.4126 33.255 14.6857L28.4067 26.2624H31.8L32.475 24.3957H36.6217L37.01 26.2624ZM33.405 21.8357L35.105 17.1441L36.085 21.8357H33.405ZM19.805 13.7691L17.1333 26.2624H13.9L16.575 13.7691H19.805Z" fill="#7C7C7C"/>
</g>
</svg>
