<svg width="40" height="40" viewBox="0 0 40 40" fill="none" xmlns="http://www.w3.org/2000/svg">
<g id="social__icon">
<path id="Vector" d="M19.8913 20.5117C15.6538 20.5117 12.1317 16.9926 12.1317 12.8286C12.1317 8.52054 15.6538 5 19.8928 5C24.2759 5 27.6524 8.51904 27.6524 12.8286C27.6449 14.8732 26.8258 16.8312 25.3753 18.2721C23.9247 19.7131 21.9614 20.5192 19.9168 20.5132L19.8913 20.5117ZM19.8913 9.52556C18.0973 9.52556 16.7323 11.0331 16.7323 12.8301C16.7323 14.6241 18.0973 15.9891 19.8928 15.9891C21.7603 15.9891 23.0534 14.6241 23.0534 12.8301C23.0549 11.0316 21.7603 9.52556 19.8913 9.52556ZM22.9814 26.9048L27.3659 31.1423C28.2284 32.0738 28.2284 33.4389 27.3659 34.3014C26.4329 35.2329 24.9944 35.2329 24.2759 34.3014L19.8928 29.9918L15.6538 34.3014C15.2233 34.7319 14.6472 34.9464 13.9992 34.9464C13.4967 34.9464 12.9222 34.7304 12.4182 34.3014C11.5557 33.4389 11.5557 32.0738 12.4182 31.1408L16.8733 26.9033C15.2644 26.4268 13.721 25.7522 12.2787 24.8947C11.2002 24.3202 10.9857 22.8847 11.5602 21.8062C12.2787 20.7292 13.5717 20.4427 14.7223 21.1612C16.2802 22.1119 18.07 22.6149 19.8951 22.6149C21.7202 22.6149 23.51 22.1119 25.0679 21.1612C26.2184 20.4427 27.5819 20.7292 28.2284 21.8062C28.8764 22.8847 28.5869 24.3187 27.5804 24.8947C26.2169 25.7573 24.6359 26.4038 22.9829 26.9063L22.9814 26.9048Z" fill="white"/>
</g>
</svg>
