<svg width="28" height="17" viewBox="0 0 28 17" fill="none" xmlns="http://www.w3.org/2000/svg">
<path id="Exclude" fill-rule="evenodd" clip-rule="evenodd" d="M4.90748 0.482422H1.95366C1.10972 0.482422 0.940918 0.879697 0.940918 1.31781C0.940918 2.1002 1.94232 5.98059 5.60359 11.1127C8.04449 14.6175 11.4835 16.5174 14.6128 16.5174C16.4905 16.5174 16.7227 16.0954 16.7227 15.3686V12.7197C16.7227 11.8757 16.9006 11.7072 17.4951 11.7072C17.9332 11.7072 18.6843 11.9263 20.4367 13.6162C21.0315 14.2108 21.4787 14.7082 21.8431 15.1136L21.8458 15.1166C22.7066 16.074 23.1052 16.5174 23.8963 16.5174H26.85C27.694 16.5174 28.116 16.0954 27.8726 15.2627C27.6062 14.4327 26.65 13.2285 25.3811 11.8012C25.0324 11.389 24.5954 10.9609 24.2083 10.5817L24.2073 10.5807C23.8305 10.2117 23.5013 9.88918 23.3471 9.6731C22.909 9.10994 23.0341 8.85947 23.3471 8.35889L23.3996 8.2844C23.8447 7.65173 26.9726 3.16637 27.3214 1.56828C27.5091 0.942284 27.3214 0.482422 26.4281 0.482422H23.4743C22.7233 0.482422 22.377 0.879697 22.1892 1.31781C22.1892 1.31781 20.6871 4.9792 18.5591 7.35751C17.8707 8.04596 17.5577 8.26495 17.1822 8.26495C16.9944 8.26495 16.7227 8.04596 16.7227 7.42009V1.56828C16.7227 0.81711 16.5047 0.482422 15.8788 0.482422H11.237C10.7677 0.482422 10.4855 0.830964 10.4855 1.1614C10.4855 1.433 10.6403 1.6248 10.8378 1.86947L10.8383 1.87015C11.1588 2.2667 11.5913 2.80215 11.6591 4.0404V8.39013C11.6591 9.34388 11.4868 9.51682 11.1113 9.51682C10.11 9.51682 7.67407 5.83901 6.22946 1.63074C5.9463 0.812856 5.66241 0.482422 4.90748 0.482422Z" fill="white"/>
</svg>
