<svg width="122" height="10" viewBox="0 0 122 10" fill="none" xmlns="http://www.w3.org/2000/svg">
<path fill-rule="evenodd" clip-rule="evenodd" d="M14.5078 5.02912V5.00318C14.5078 2.25416 16.8717 0.017334 20.0235 0.017334C23.1752 0.017334 25.5114 2.22174 25.5114 4.97076V4.9967C25.5114 7.74572 23.1476 9.98255 19.9958 9.98255C16.844 9.98255 14.5078 7.77814 14.5078 5.02912ZM22.6223 5.02912V5.00318C22.6223 3.62219 21.5579 2.41625 19.9958 2.41625C18.4476 2.41625 17.4108 3.58977 17.4108 4.97725V5.00318C17.4108 6.38418 18.4752 7.59012 20.0235 7.59012C21.5855 7.59012 22.6223 6.41011 22.6223 5.02912Z" fill="#7C7C7C"/>
<path d="M0 0.21184H2.6403L6.84267 5.27549V0.21184H9.64195V9.79452H7.16061L2.79927 4.53637V9.79452H0V0.21184Z" fill="#7C7C7C"/>
<path d="M29.0986 2.53944H32.1675V9.79452H35.0013V2.53944H38.0632V0.21184H29.0986V2.53944Z" fill="#7C7C7C"/>
<path fill-rule="evenodd" clip-rule="evenodd" d="M45.2515 0.140523H47.9816L52.3291 9.78804H49.2949L48.5484 8.07639H44.6087L43.876 9.78804H40.8971L45.2515 0.140523ZM47.7328 6.01462L46.5924 3.29153L45.4381 6.01462H47.7328Z" fill="#7C7C7C"/>
<path d="M60.0496 0.172941H57.0568V9.74914H59.8284V4.27703L62.4273 7.99858H62.4895L65.1021 4.25109V9.75562H67.9152V0.172941H64.9224L62.4895 3.88153L60.0496 0.172941Z" fill="#7C7C7C"/>
<path d="M82.3194 0.172941V2.42921H76.9213V3.88153H81.0822V5.97572H76.9213V7.49287H82.3194V9.74914H74.1151V0.172941H82.3194Z" fill="#7C7C7C"/>
<path fill-rule="evenodd" clip-rule="evenodd" d="M92.1756 0.172941H88.2359V9.74914H92.1204C95.7974 9.74914 97.9401 7.70034 97.9401 4.93186V4.90593C97.9401 2.14394 95.8251 0.172941 92.1756 0.172941ZM95.0371 4.97077C95.0371 6.52033 93.9174 7.39561 92.224 7.39561H91.0697V2.51999H92.224C93.9105 2.51999 95.0371 3.40823 95.0371 4.94483V4.97077Z" fill="#7C7C7C"/>
<path d="M103.089 0.172941H105.937V9.75562H103.089V0.172941Z" fill="#7C7C7C"/>
<path fill-rule="evenodd" clip-rule="evenodd" d="M117.652 0.101619H114.922L110.575 9.74914H113.554L114.286 8.03748H118.226L118.966 9.74914H122L117.652 0.101619ZM116.256 3.25262L117.397 5.97571H115.102L116.256 3.25262Z" fill="#7C7C7C"/>
</svg>
