<svg width="40" height="40" viewBox="0 0 40 40" fill="none" xmlns="http://www.w3.org/2000/svg">
<g id="bxl:mastercard">
<path id="Vector" d="M19.2222 26.6151C19.286 26.6705 19.3551 26.7258 19.4229 26.7798C18.0753 27.6879 16.4934 28.1715 14.8759 28.1699C13.7978 28.1708 12.73 27.9559 11.7337 27.5376C10.7374 27.1192 9.83213 26.5056 9.06963 25.7319C8.30713 24.9581 7.70238 24.0393 7.28994 23.0281C6.87751 22.0169 6.66549 20.9331 6.66602 19.8386C6.66588 18.3313 7.06848 16.8521 7.83095 15.5586C8.59342 14.2651 9.68722 13.2058 10.9958 12.4934C12.3045 11.781 13.7789 11.4422 15.2622 11.5131C16.7455 11.5841 18.1821 12.062 19.419 12.8962C19.3525 12.9542 19.286 13.0068 19.2355 13.0662C18.2771 13.9062 17.5082 14.9459 16.981 16.1145C16.4538 17.2832 16.1807 18.5533 16.1802 19.8386C16.1802 22.4367 17.2877 24.9065 19.2222 26.6151ZM25.0203 11.506C23.4042 11.5029 21.8236 11.9867 20.4786 12.8962C20.5437 12.9542 20.6102 13.0068 20.6607 13.0662C22.6045 14.7708 23.7174 17.242 23.7174 19.8386C23.7174 22.4353 22.6072 24.9038 20.6754 26.6151C20.6102 26.6705 20.5411 26.7258 20.4746 26.7798C21.8211 27.6882 23.4022 28.1718 25.019 28.1699C26.1056 28.184 27.1843 27.979 28.1922 27.5666C29.2002 27.1543 30.1175 26.5429 30.8909 25.7679C31.6643 24.9928 32.2784 24.0696 32.6975 23.0518C33.1167 22.034 33.3326 20.9418 33.3327 19.8386C33.3328 18.7355 33.1171 17.6433 32.6981 16.6254C32.2791 15.6075 31.6651 14.6842 30.8919 13.909C30.1186 13.1339 29.2014 12.5223 28.1935 12.1098C27.1856 11.6973 26.107 11.4921 25.0203 11.506ZM19.9481 13.293C18.9706 14.071 18.1806 15.0647 17.6378 16.1989C17.0951 17.333 16.8139 18.5778 16.8157 19.8386C16.8131 21.1002 17.0939 22.3458 17.6367 23.4808C18.1795 24.6157 18.97 25.6101 19.9481 26.3884C20.926 25.6097 21.7164 24.6153 22.2593 23.4805C22.8023 22.3457 23.0836 21.1002 23.0818 19.8386C23.0836 18.5776 22.8024 17.3327 22.2594 16.1986C21.7164 15.0644 20.926 14.0707 19.9481 13.293Z" fill="#7C7C7C"/>
</g>
</svg>
