<svg width="40" height="40" viewBox="0 0 40 40" fill="none" xmlns="http://www.w3.org/2000/svg">
<g id="mir">
<g id="Vector">
<path d="M0.416016 15.0016H4.09046C4.4245 15.0016 5.42662 14.8975 5.87201 16.3556C6.20605 17.2929 6.65143 18.751 7.31952 20.9382H7.54221C8.21029 18.6469 8.76702 17.0846 8.98972 16.3556C9.4351 14.8975 10.5486 15.0016 10.994 15.0016H14.4457V25H10.8826V19.0635H10.6599L8.76702 25H6.0947L4.20181 19.0635H3.86777V25H0.416016M15.8932 15.0016H19.4563V20.9382H19.7904L22.1286 16.0431C22.574 15.1058 23.5761 15.0016 23.5761 15.0016H26.9165V25H23.3534V19.0635H23.1308L20.7925 23.9585C20.3471 24.8959 19.2336 25 19.2336 25H15.8932M31.7045 21.9797V25H28.3641V19.7925H39.276C38.8307 21.0423 37.2718 21.9797 35.4902 21.9797" fill="#7C7C7C"/>
<path d="M39.4987 19.1676C39.9441 17.2929 38.608 15.0016 35.7129 15.0016H28.1414C28.3641 17.1888 30.3683 19.1676 32.4839 19.1676" fill="#7C7C7C"/>
</g>
</g>
</svg>
